# xmcd
#
# Track frame offsets: 
#        151
#        24975
#        98574
#        124074
#        148308
#        155785
#        180010
#
# Disc length: 2725 seconds
#
# Revision: 0
# Processed by: cddbd v1.4b42PL1 Copyright (c) Steve Scherf et al.
# Submitted via: ExactAudioCopy v0.90a11
#
DISCID=520aa307
DTITLE=The Black Crowes - 5-27-01 Disc Two
DYEAR=1900
DGENRE=
TTITLE0=Horsehead
TTITLE1=My Morning Song
TTITLE2=Young Man Old Man
TTITLE3=Cosmic Friend
TTITLE4=Audience
TTITLE5=Encore: Under a Mountain
TTITLE6=Virtue and Vice
EXTD=
EXTT0=
EXTT1=
EXTT2=
EXTT3=
EXTT4=
EXTT5=
EXTT6=
PLAYORDER=
